<svg width="52" height="52" viewBox="0 0 52 52" fill="none" xmlns="http://www.w3.org/2000/svg">
<path d="M51.9531 21.2992L48.5744 37.4955C47.6359 42.5984 44.445 46.592 40.3155 48.3669L32.2443 51.9168C31.4935 52.1387 30.7427 51.9168 30.1796 51.2512L24.3609 43.7077C21.3576 39.936 20.2314 34.6112 21.1699 29.5083L24.3609 13.312C24.5486 12.4245 25.2994 11.5371 26.2379 11.5371C34.8722 11.5371 43.1311 13.9776 50.8269 18.4149C51.7654 19.3024 52.1408 20.4117 51.9531 21.2992ZM28.4903 32.1707C27.5518 36.3861 29.8042 40.6016 33.3706 41.4891C36.9369 42.5984 40.5032 39.936 41.2541 35.7205M43.5065 25.0709C42.0049 24.6272 40.5032 25.7365 40.1278 27.5115C39.7524 29.2864 40.6909 31.0613 42.1926 31.5051C43.6942 31.9488 45.1958 30.8395 45.5712 29.0645C45.9466 27.2896 45.0081 25.5147 43.5065 25.0709ZM30.7427 21.5211C29.2411 21.0773 27.7395 22.1867 27.3641 23.9616C26.9887 25.7365 27.9272 27.5115 29.4288 27.9552C30.9304 28.3989 32.4321 27.2896 32.8075 25.5147C33.1829 23.7397 32.2443 21.9648 30.7427 21.5211ZM18.5421 41.2672L14.6003 40.1579C10.2832 38.8267 6.90455 35.0549 5.40293 30.1739L0.147273 12.4245C-0.228131 11.5371 0.147273 10.4277 0.898082 9.76213C8.21847 4.21547 16.102 0.887467 24.7363 0C25.6748 0 26.4256 0.443733 26.6133 1.55307L28.4903 7.76533C27.7395 7.76533 26.9887 7.76533 26.2379 7.76533C23.61 7.76533 21.3576 9.76213 20.7945 12.8683L18.7298 23.296C18.5421 23.296 18.3544 23.296 18.1667 23.5179C14.788 24.8491 12.911 29.2864 14.2249 33.5019L17.2282 32.1707C17.0405 35.0549 17.4159 38.1611 18.5421 41.2672ZM13.2864 19.3024C12.7233 17.5275 11.2217 16.64 9.72008 17.3056C8.21847 17.7493 7.27996 19.7461 7.84306 21.5211C8.40617 23.296 9.90779 24.1835 11.4094 23.5179C12.911 22.8523 13.6618 21.0773 13.2864 19.3024Z" fill="#07CB79" fill-opacity="0.63"/>
</svg>
